<svg id="svg" version="1.1" xmlns="http://www.w3.org/2000/svg" xmlns:xlink="http://www.w3.org/1999/xlink" width="400" height="400" viewBox="0, 0, 400,400"><g id="svgg"><path id="path0" d="M175.325 73.836 C 119.561 82.567,91.989 143.568,123.067 189.453 C 135.846 208.320,155.353 219.898,178.121 222.129 C 207.610 225.019,234.764 210.518,250.278 183.594 C 277.972 135.534,241.895 74.416,185.352 73.602 C 181.055 73.540,176.543 73.645,175.325 73.836 M187.012 78.800 C 186.206 78.884,184.888 78.884,184.082 78.800 C 183.276 78.716,183.936 78.647,185.547 78.647 C 187.158 78.647,187.817 78.716,187.012 78.800 M185.938 84.482 C 185.938 84.663,186.101 84.711,186.301 84.587 C 186.501 84.463,186.791 84.567,186.945 84.816 C 187.147 85.143,186.909 85.192,186.093 84.990 C 184.675 84.640,184.133 84.152,185.162 84.152 C 185.588 84.152,185.938 84.300,185.938 84.482 M186.719 85.938 C 187.445 86.664,187.500 87.240,187.500 94.104 L 187.500 101.489 189.551 101.751 C 198.402 102.880,206.416 106.044,213.664 111.270 L 217.367 113.939 218.133 112.927 C 219.960 110.513,224.725 105.469,225.179 105.469 C 225.452 105.469,226.139 105.833,226.705 106.278 C 228.514 107.701,228.111 108.580,223.828 112.558 C 219.285 116.777,219.462 116.255,221.615 119.073 C 226.771 125.820,230.203 134.567,231.105 143.262 L 231.358 145.703 238.452 145.703 C 246.176 145.703,246.484 145.786,246.484 147.855 C 246.484 150.312,246.168 150.429,238.652 150.755 C 234.903 150.918,232.803 151.090,233.984 151.139 C 235.422 151.198,235.885 151.324,235.382 151.521 C 234.655 151.806,234.657 151.833,235.455 152.392 L 236.278 152.968 235.424 153.500 C 234.659 153.976,234.623 153.967,235.079 153.416 C 235.510 152.894,235.466 152.761,234.786 152.546 C 234.345 152.406,233.984 152.127,233.984 151.927 C 233.984 151.304,233.301 151.527,233.005 152.246 C 232.521 153.420,232.413 155.713,232.873 155.059 C 233.166 154.642,233.197 154.750,232.990 155.469 C 232.836 156.006,232.708 156.943,232.706 157.551 C 232.704 158.444,232.561 158.619,231.961 158.462 C 231.359 158.305,231.266 158.420,231.471 159.066 C 231.625 159.551,231.572 159.770,231.336 159.624 C 230.774 159.276,230.423 160.997,230.931 161.610 C 231.168 161.895,231.239 162.251,231.089 162.400 C 230.939 162.550,230.653 162.414,230.453 162.098 C 230.178 161.662,230.089 161.783,230.084 162.598 C 230.081 163.188,229.919 163.672,229.724 163.672 C 229.529 163.672,229.458 163.276,229.565 162.793 C 229.910 161.234,228.735 163.625,227.812 166.358 C 227.223 168.102,227.089 169.057,227.341 169.719 C 227.595 170.386,227.536 170.772,227.131 171.108 C 226.822 171.364,226.585 172.125,226.603 172.799 C 226.653 174.633,226.435 175.510,225.735 176.288 C 225.388 176.674,224.773 177.640,224.368 178.436 C 223.964 179.232,223.430 180.059,223.181 180.273 C 221.810 181.459,222.185 182.946,224.411 185.156 C 226.844 187.572,228.125 189.398,228.125 190.451 C 228.125 191.224,226.671 192.969,226.027 192.969 C 225.494 192.969,218.092 185.169,218.352 184.882 C 218.464 184.759,218.291 184.740,217.969 184.840 C 217.646 184.940,217.328 185.396,217.260 185.852 C 217.193 186.308,216.780 186.795,216.343 186.934 C 215.320 187.259,214.170 188.408,214.344 188.931 C 214.418 189.154,214.206 189.563,213.871 189.840 C 213.370 190.257,213.288 190.250,213.404 189.801 C 213.481 189.502,213.470 189.391,213.379 189.553 C 213.289 189.716,213.070 189.759,212.894 189.650 C 212.717 189.541,212.663 189.796,212.773 190.216 C 212.924 190.797,212.723 191.043,211.932 191.241 C 211.279 191.405,210.966 191.699,211.092 192.028 C 211.203 192.317,211.126 192.657,210.920 192.784 C 210.715 192.911,210.547 192.741,210.547 192.406 C 210.547 191.344,209.838 191.749,209.571 192.964 C 209.430 193.606,209.127 194.248,208.897 194.390 C 208.618 194.563,208.568 194.296,208.748 193.580 C 208.923 192.881,208.875 192.599,208.609 192.764 C 208.386 192.902,208.203 193.375,208.203 193.815 C 208.203 194.466,208.027 194.572,207.264 194.380 C 206.472 194.182,206.356 194.265,206.525 194.911 C 206.745 195.754,204.413 195.932,203.815 195.117 C 203.653 194.897,203.525 195.024,203.522 195.410 C 203.518 195.786,203.340 196.094,203.125 196.094 C 202.910 196.094,202.734 195.918,202.734 195.703 C 202.734 195.488,202.559 195.313,202.344 195.313 C 202.129 195.313,201.953 195.611,201.953 195.977 C 201.953 196.493,201.849 196.536,201.484 196.172 C 200.459 195.147,198.139 195.588,198.305 196.777 C 198.445 197.783,198.430 197.796,198.068 196.973 C 197.589 195.884,196.873 195.808,197.152 196.875 C 197.373 197.718,196.677 197.973,196.352 197.168 C 196.244 196.899,196.136 197.031,196.113 197.461 C 196.073 198.181,196.039 198.188,195.672 197.559 C 195.262 196.855,192.969 196.571,192.969 197.224 C 192.969 197.416,192.714 197.670,192.403 197.790 C 192.023 197.936,191.909 197.819,192.056 197.437 C 192.216 197.019,192.089 196.937,191.581 197.132 C 191.181 197.286,190.984 197.242,191.116 197.028 C 191.251 196.811,190.622 196.700,189.593 196.761 C 188.003 196.854,187.864 196.792,188.088 196.088 C 188.223 195.661,188.161 195.313,187.949 195.313 C 187.714 195.312,187.513 198.048,187.434 202.285 C 187.290 210.073,187.142 210.547,184.859 210.547 C 182.587 210.547,182.448 210.061,182.434 202.036 L 182.422 194.891 178.613 195.004 C 176.519 195.066,174.676 195.293,174.518 195.508 C 174.359 195.724,174.216 195.549,174.197 195.117 L 174.164 194.336 173.858 195.117 C 173.565 195.867,173.542 195.862,173.265 194.991 C 173.094 194.453,172.763 194.166,172.451 194.286 C 172.162 194.397,171.840 194.278,171.735 194.021 C 171.598 193.686,171.418 193.720,171.098 194.141 C 170.734 194.618,170.698 194.564,170.899 193.847 C 171.128 193.035,171.068 192.998,170.118 193.359 C 168.831 193.848,168.372 193.853,169.137 193.370 C 169.893 192.892,169.383 192.422,167.434 191.798 C 166.190 191.401,165.857 191.410,165.549 191.849 C 165.243 192.286,165.204 192.278,165.333 191.803 C 165.439 191.414,164.646 190.786,162.921 189.892 C 149.707 183.050,140.099 168.598,138.413 153.027 C 138.232 151.357,138.009 150.769,137.542 150.732 C 137.197 150.704,134.164 150.723,130.802 150.772 C 123.630 150.878,122.723 150.511,123.236 147.717 C 123.622 145.615,123.547 145.634,131.147 145.685 L 138.166 145.731 138.657 142.142 C 139.889 133.124,142.908 126.164,149.123 118.009 L 150.432 116.292 149.230 115.710 C 147.622 114.931,142.187 109.018,142.188 108.047 C 142.188 107.086,143.665 105.469,144.543 105.469 C 145.238 105.469,151.083 112.268,151.776 113.884 L 152.184 114.836 155.211 112.319 C 162.746 106.055,174.065 101.563,182.314 101.563 C 182.373 101.563,182.422 98.303,182.422 94.318 C 182.422 85.637,183.776 82.995,186.719 85.938 M183.073 107.682 C 182.930 107.826,182.813 108.864,182.813 109.989 C 182.813 111.770,182.721 112.012,182.108 111.852 C 180.222 111.359,171.697 113.616,167.578 115.699 C 157.417 120.838,148.520 133.694,148.437 143.359 C 148.421 145.236,147.965 145.848,146.826 145.519 C 144.357 144.805,144.531 144.659,144.531 147.435 L 144.531 150.000 146.195 150.000 L 147.860 150.000 148.542 153.707 C 151.796 171.398,163.228 181.971,182.213 184.850 C 182.872 184.950,182.965 185.230,182.867 186.819 L 182.753 188.672 185.127 188.672 L 187.500 188.672 187.500 186.719 C 187.500 185.182,187.634 184.766,188.130 184.766 C 191.022 184.766,202.472 180.285,206.641 177.521 C 214.907 172.042,221.094 160.491,221.094 150.535 C 221.094 149.705,221.267 149.609,222.773 149.609 C 224.719 149.609,225.391 149.096,225.391 147.610 C 225.391 145.651,225.053 145.313,223.096 145.313 L 221.275 145.313 220.450 141.011 C 218.241 129.505,210.688 120.144,199.477 115.019 C 196.981 113.878,190.479 112.112,188.770 112.110 L 187.500 112.109 187.500 109.766 L 187.500 107.422 185.417 107.422 C 184.271 107.422,183.216 107.539,183.073 107.682 M191.602 116.856 C 214.758 122.585,224.400 147.621,211.135 167.575 C 198.441 186.669,166.451 184.527,156.447 163.915 C 152.711 156.215,151.405 149.638,152.517 144.109 C 156.420 124.687,173.924 112.482,191.602 116.856 M198.745 130.957 C 198.025 131.655,196.816 132.965,196.059 133.868 L 194.684 135.509 192.595 133.380 C 190.219 130.957,189.792 130.844,188.458 132.284 C 187.169 133.674,187.189 133.739,189.637 136.072 C 191.550 137.896,191.701 138.153,191.082 138.540 C 190.702 138.777,189.986 139.739,189.491 140.677 L 188.591 142.383 186.158 139.941 C 183.439 137.214,183.333 137.174,181.889 138.310 C 180.295 139.563,181.491 141.949,184.570 143.664 C 185.142 143.982,185.247 144.243,184.961 144.637 C 184.746 144.932,184.036 145.973,183.383 146.948 L 182.196 148.722 180.649 147.184 C 177.958 144.509,176.080 143.903,174.814 145.302 C 173.917 146.294,174.568 147.417,177.135 149.305 C 179.103 150.753,179.237 151.142,178.112 152.160 C 177.676 152.555,176.971 153.441,176.546 154.128 L 175.774 155.377 173.922 153.659 C 171.824 151.711,170.675 151.272,169.307 151.895 C 167.828 152.569,168.149 153.719,170.410 155.848 L 172.461 157.779 170.044 160.237 C 167.302 163.026,166.754 164.330,167.892 165.360 C 168.938 166.307,170.030 165.792,172.643 163.121 C 175.251 160.453,175.516 160.442,177.891 162.891 C 180.007 165.072,180.726 165.257,181.963 163.940 C 183.174 162.651,183.081 162.420,180.444 160.135 L 178.075 158.083 180.110 156.023 L 182.144 153.963 184.402 156.277 C 186.669 158.602,187.186 158.778,188.574 157.704 C 189.454 157.023,189.110 155.451,187.793 154.137 C 187.095 153.441,186.116 152.421,185.618 151.871 L 184.713 150.871 186.617 148.967 L 188.521 147.063 190.391 149.117 C 192.402 151.328,193.552 151.688,194.666 150.458 C 195.682 149.335,195.462 148.753,193.164 146.484 C 190.608 143.960,190.594 143.865,192.586 142.455 C 193.441 141.850,194.141 141.177,194.141 140.959 C 194.141 140.741,195.125 141.439,196.327 142.511 C 199.001 144.894,199.725 145.121,201.045 143.985 C 202.300 142.906,202.063 142.346,199.222 139.690 L 197.213 137.810 199.974 135.269 C 202.896 132.578,203.334 131.523,202.020 130.334 C 200.975 129.389,200.215 129.533,198.745 130.957 M254.566 152.637 C 254.468 153.013,254.388 152.705,254.388 151.953 C 254.388 151.201,254.468 150.894,254.566 151.270 C 254.664 151.646,254.664 152.261,254.566 152.637 M233.854 153.531 C 233.854 154.296,233.741 154.539,233.535 154.215 C 233.117 153.556,233.113 152.344,233.529 152.344 C 233.708 152.344,233.854 152.878,233.854 153.531 M229.410 164.453 C 229.538 164.941,229.422 165.234,229.102 165.234 C 228.781 165.234,228.665 164.941,228.793 164.453 C 228.905 164.023,229.044 163.672,229.102 163.672 C 229.159 163.672,229.298 164.023,229.410 164.453 M227.734 174.391 C 227.734 174.701,227.559 175.063,227.344 175.195 C 227.129 175.328,226.953 175.075,226.953 174.632 C 226.953 174.190,227.129 173.828,227.344 173.828 C 227.559 173.828,227.734 174.081,227.734 174.391 M220.833 181.434 C 220.833 181.744,220.965 181.916,221.125 181.816 C 221.286 181.717,221.488 181.848,221.575 182.107 C 221.667 182.384,221.850 182.270,222.019 181.828 C 222.177 181.416,222.182 181.203,222.029 181.356 C 221.877 181.509,221.545 181.462,221.292 181.253 C 220.977 180.991,220.833 181.048,220.833 181.434 M151.150 182.791 C 151.939 183.290,151.335 184.481,148.949 187.126 C 147.891 188.298,146.628 189.829,146.142 190.528 C 144.709 192.588,143.780 192.886,142.701 191.632 C 141.182 189.867,141.490 189.059,144.824 186.060 C 148.902 182.392,149.792 181.932,151.150 182.791 M280.900 319.881 C 279.836 320.946,279.807 323.071,280.844 324.009 C 282.341 325.364,285.547 323.879,285.547 321.831 C 285.547 319.803,282.329 318.452,280.900 319.881 " stroke="none" fill="#ccdad8" fill-rule="evenodd"></path><path id="path1" d="M178.711 62.356 C 172.118 63.083,169.959 63.416,170.122 63.679 C 170.227 63.850,169.983 63.903,169.579 63.798 C 167.092 63.147,144.346 71.018,145.115 72.263 C 145.231 72.449,145.119 72.729,144.868 72.885 C 144.582 73.061,144.515 72.998,144.689 72.717 C 145.179 71.924,144.246 72.228,141.809 73.656 C 140.402 74.481,139.544 75.221,139.700 75.475 C 139.858 75.730,139.784 75.791,139.517 75.625 C 139.270 75.473,138.760 75.528,138.382 75.748 C 137.748 76.117,137.756 76.150,138.477 76.172 C 139.548 76.204,138.272 76.980,136.899 77.131 C 136.160 77.212,132.031 79.935,132.031 80.341 C 132.031 80.398,132.339 80.345,132.715 80.224 C 133.272 80.045,133.294 80.079,132.831 80.406 C 132.519 80.627,132.120 80.719,131.943 80.610 C 131.219 80.162,124.739 86.143,124.919 87.093 C 125.001 87.526,124.941 87.561,124.706 87.216 C 124.472 86.873,123.908 87.236,122.736 88.481 C 121.161 90.155,120.655 90.942,121.484 90.430 C 121.699 90.297,121.875 90.393,121.875 90.644 C 121.875 90.894,121.624 91.003,121.318 90.885 C 120.726 90.658,119.674 91.603,120.199 91.890 C 120.369 91.983,120.305 92.012,120.056 91.955 C 119.808 91.897,119.324 92.159,118.982 92.538 C 118.291 93.301,118.145 93.928,118.746 93.557 C 118.971 93.418,119.030 93.584,118.886 93.958 C 118.714 94.406,118.557 94.460,118.359 94.140 C 118.175 93.842,117.606 94.273,116.729 95.376 C 114.857 97.731,113.972 99.219,114.444 99.219 C 114.664 99.219,114.844 99.389,114.844 99.597 C 114.844 99.805,114.573 99.872,114.242 99.745 C 113.822 99.583,113.501 99.882,113.180 100.733 C 112.927 101.404,112.587 101.953,112.424 101.953 C 111.959 101.953,110.938 104.164,111.246 104.505 C 111.399 104.674,111.330 104.702,111.093 104.567 C 110.706 104.347,108.658 107.766,108.563 108.789 C 108.544 109.004,108.323 109.426,108.072 109.728 C 107.822 110.030,107.669 110.645,107.732 111.095 C 107.812 111.662,107.743 111.760,107.507 111.415 C 107.257 111.048,107.040 111.194,106.687 111.969 C 106.238 112.955,106.252 112.987,106.912 112.480 C 107.337 112.153,107.268 112.331,106.738 112.928 C 105.798 113.986,105.569 114.679,106.310 114.221 C 106.592 114.046,106.655 114.114,106.479 114.399 C 106.323 114.651,106.051 114.767,105.874 114.657 C 105.438 114.388,104.214 117.519,104.545 118.055 C 104.690 118.289,104.635 118.373,104.423 118.242 C 103.942 117.945,102.591 122.108,102.969 122.720 C 103.126 122.973,103.074 123.062,102.851 122.924 C 102.618 122.779,102.111 123.995,101.613 125.891 C 93.791 155.694,101.695 185.635,123.226 207.764 C 137.176 222.102,152.643 229.750,174.805 233.271 C 188.801 235.495,209.467 231.940,222.932 224.992 C 270.189 200.610,285.806 144.418,257.291 101.367 C 250.974 91.830,239.799 79.781,238.148 80.726 C 237.899 80.868,237.825 80.842,237.983 80.667 C 238.141 80.492,237.702 79.937,237.006 79.434 C 236.311 78.931,235.336 78.210,234.839 77.834 C 221.328 67.584,195.608 60.492,178.711 62.356 M198.828 74.611 C 251.727 86.232,276.829 143.819,248.120 187.695 C 213.891 240.008,138.168 232.356,114.766 174.219 C 103.419 146.030,113.285 108.392,136.678 90.625 C 137.385 90.088,138.870 88.937,139.978 88.067 C 155.670 75.750,179.358 70.334,198.828 74.611 M129.755 83.135 C 129.363 83.528,128.704 83.973,128.290 84.125 C 127.824 84.296,127.983 84.031,128.711 83.425 C 130.073 82.292,130.801 82.090,129.755 83.135 M183.468 86.251 C 182.934 86.841,182.813 88.162,182.724 94.357 L 182.617 101.758 180.078 102.073 C 173.628 102.875,166.591 105.314,160.844 108.739 C 157.754 110.581,154.197 113.585,154.510 114.091 C 154.630 114.285,154.435 114.332,154.077 114.194 C 153.552 113.993,153.477 114.108,153.692 114.785 C 153.972 115.668,153.337 115.988,152.993 115.137 C 152.875 114.845,152.784 114.924,152.765 115.332 C 152.748 115.709,152.427 116.018,152.051 116.021 C 150.729 116.031,145.462 123.230,143.321 127.952 C 141.413 132.160,139.450 138.731,138.968 142.525 L 138.503 146.182 131.396 145.902 C 123.479 145.589,123.438 145.602,123.438 148.364 C 123.438 150.231,123.939 150.364,131.448 150.479 L 138.424 150.586 138.944 153.711 C 141.730 170.469,150.411 183.309,163.086 189.421 C 168.645 192.101,177.306 194.520,181.373 194.528 L 182.863 194.531 182.740 201.743 C 182.605 209.672,182.756 210.254,184.955 210.254 C 186.784 210.254,186.902 209.806,187.109 202.033 L 187.305 194.728 189.453 194.457 C 196.549 193.560,205.460 190.271,211.133 186.454 C 217.319 182.291,218.397 181.395,219.985 179.094 C 220.872 177.809,221.991 176.285,222.472 175.708 C 225.358 172.241,229.523 160.984,230.502 154.004 L 231.009 150.391 237.891 150.391 C 245.434 150.391,245.916 150.264,246.325 148.181 C 246.773 145.900,245.650 145.580,237.787 145.752 L 231.055 145.898 230.803 143.351 C 228.636 121.451,213.500 106.103,190.247 102.226 L 187.305 101.736 187.198 94.159 C 187.131 89.376,186.934 86.392,186.662 86.065 C 186.044 85.320,184.214 85.427,183.468 86.251 M117.199 96.072 C 116.794 96.829,116.016 97.504,116.016 97.098 C 116.016 96.861,117.289 95.313,117.483 95.313 C 117.551 95.313,117.423 95.654,117.199 96.072 M143.607 106.278 C 141.868 107.647,142.225 108.689,145.617 112.142 C 147.968 114.534,148.903 115.234,149.742 115.234 C 150.339 115.234,150.728 115.074,150.607 114.877 C 150.485 114.681,150.605 114.447,150.872 114.358 C 151.654 114.097,145.713 105.469,144.752 105.469 C 144.689 105.469,144.173 105.833,143.607 106.278 M223.394 107.324 C 218.936 112.077,217.092 114.844,218.382 114.844 C 218.610 114.844,218.697 114.684,218.576 114.488 C 218.210 113.895,218.778 112.926,219.361 113.150 C 219.781 113.311,219.810 113.541,219.488 114.143 C 218.943 115.163,219.659 116.049,220.410 115.285 C 220.679 115.011,220.723 114.821,220.508 114.862 C 219.577 115.039,219.457 114.792,220.117 114.063 C 220.506 113.633,221.161 113.281,221.573 113.281 C 222.694 113.281,227.344 109.025,227.344 107.999 C 227.344 105.706,225.248 105.347,223.394 107.324 M187.684 108.491 C 187.927 109.459,187.990 109.492,188.354 108.841 C 190.202 105.539,207.560 113.358,212.794 119.851 C 213.599 120.849,215.286 122.900,216.543 124.407 C 220.191 128.784,223.252 135.736,224.189 141.776 C 224.437 143.375,224.819 144.899,225.038 145.163 C 225.257 145.427,225.382 146.491,225.316 147.528 L 225.195 149.414 223.242 149.646 C 222.168 149.773,221.686 149.905,222.171 149.939 C 222.974 149.995,223.040 150.163,222.914 151.855 C 222.767 153.838,221.171 157.487,221.077 156.055 C 221.041 155.490,220.926 155.599,220.664 156.445 C 220.465 157.090,220.398 158.057,220.515 158.594 C 220.648 159.207,220.602 159.384,220.392 159.070 C 220.167 158.735,219.837 159.358,219.394 160.955 C 218.702 163.441,216.493 168.140,215.326 169.607 C 210.195 176.055,204.604 179.882,196.289 182.637 C 191.484 184.229,189.857 185.044,193.981 183.793 C 196.489 183.032,196.875 183.054,196.875 183.956 C 196.875 184.911,195.100 186.328,193.905 186.328 C 193.255 186.328,193.058 186.496,193.218 186.914 C 193.431 187.468,191.642 187.830,190.430 187.479 C 190.215 187.417,189.644 187.352,189.160 187.336 C 188.475 187.311,188.281 187.074,188.281 186.258 C 188.281 185.482,188.509 185.167,189.160 185.041 C 189.914 184.896,189.886 184.864,188.965 184.819 C 187.933 184.768,187.891 184.840,187.891 186.670 C 187.891 188.456,187.821 188.588,186.766 188.799 C 183.719 189.409,173.796 187.422,167.793 185.002 C 163.070 183.097,154.671 177.333,154.074 175.586 C 153.928 175.156,153.233 174.014,152.531 173.047 C 148.400 167.357,143.323 152.661,144.712 150.413 C 144.853 150.186,144.755 150.000,144.496 150.000 C 143.755 150.000,144.359 143.082,145.519 138.281 C 149.250 122.840,163.225 110.396,179.296 108.202 C 181.122 107.953,182.689 107.675,182.779 107.585 C 183.575 106.790,187.436 107.503,187.684 108.491 M181.445 116.269 C 177.290 116.933,169.500 119.630,170.075 120.205 C 170.169 120.299,170.656 120.157,171.158 119.890 C 171.997 119.442,172.026 119.457,171.518 120.073 C 171.214 120.441,170.599 120.714,170.151 120.679 C 168.682 120.566,168.306 120.690,168.594 121.191 C 168.749 121.460,168.736 121.554,168.566 121.400 C 168.132 121.009,166.722 121.829,167.015 122.302 C 167.147 122.516,167.042 122.946,166.783 123.259 C 166.253 123.897,165.051 124.050,165.434 123.431 C 165.569 123.213,165.843 123.135,166.043 123.259 C 166.243 123.382,166.406 123.297,166.406 123.070 C 166.406 122.440,165.820 122.575,165.099 123.372 C 164.743 123.765,164.578 124.214,164.733 124.369 C 164.888 124.524,164.747 124.548,164.418 124.422 C 163.719 124.153,161.271 126.643,161.465 127.425 C 161.534 127.702,161.517 127.798,161.427 127.637 C 161.111 127.073,160.466 127.350,160.696 127.950 C 160.824 128.283,160.766 128.456,160.568 128.333 C 159.973 127.966,156.176 133.635,155.073 136.538 C 154.712 137.486,154.735 137.556,155.261 137.120 C 156.037 136.476,156.048 137.073,155.293 138.880 C 154.581 140.584,154.165 140.627,154.460 138.965 C 154.665 137.810,154.631 137.836,154.084 139.258 C 153.753 140.117,153.446 141.638,153.401 142.638 C 153.357 143.638,153.197 144.381,153.047 144.288 C 151.875 143.563,152.293 151.089,153.702 156.066 C 158.069 171.495,169.811 180.601,185.352 180.611 C 216.239 180.630,228.677 139.177,202.914 122.077 C 196.528 117.838,187.278 115.336,181.445 116.269 M202.166 130.256 C 203.603 131.692,203.384 132.267,200.293 135.183 L 197.461 137.855 199.707 140.080 C 202.141 142.491,202.428 143.373,201.085 144.314 C 199.757 145.244,199.176 145.076,196.639 143.032 L 194.294 141.143 192.622 142.583 L 190.950 144.023 193.327 146.290 C 195.962 148.803,196.055 149.056,194.894 150.533 C 193.702 152.048,192.754 151.817,190.543 149.474 L 188.573 147.385 186.865 149.093 C 184.771 151.187,184.743 150.919,187.317 153.516 C 189.686 155.906,189.833 156.382,188.604 157.690 C 187.368 159.006,186.790 158.835,184.369 156.440 L 182.192 154.285 180.250 156.158 L 178.307 158.030 180.365 159.777 C 182.701 161.760,183.229 162.955,182.248 164.039 C 180.919 165.508,180.115 165.325,177.679 163.001 L 175.386 160.814 172.664 163.442 C 167.347 168.575,164.810 165.315,169.953 159.959 L 172.284 157.531 170.517 156.083 C 167.761 153.824,167.418 152.589,169.274 151.596 C 170.450 150.966,171.807 151.515,173.940 153.480 L 175.620 155.029 177.068 153.081 C 178.499 151.155,178.819 150.391,178.195 150.391 C 177.510 150.391,174.219 146.846,174.219 146.109 C 174.219 143.589,177.363 143.854,180.379 146.627 C 181.297 147.471,182.099 148.091,182.162 148.006 C 182.225 147.921,182.927 147.039,183.723 146.045 L 185.170 144.239 184.247 143.635 C 181.134 141.595,180.073 139.267,181.728 138.108 C 183.145 137.116,183.920 137.384,186.357 139.708 C 187.630 140.922,188.672 141.714,188.672 141.467 C 188.672 141.220,189.280 140.345,190.023 139.522 L 191.375 138.026 189.438 136.117 C 187.271 133.983,187.126 133.456,188.349 132.154 C 189.621 130.801,190.634 131.031,192.718 133.147 L 194.586 135.043 197.404 132.170 C 200.527 128.986,200.790 128.880,202.166 130.256 M156.641 135.114 C 156.641 135.521,156.400 135.946,156.107 136.059 C 155.675 136.224,155.657 136.083,156.009 135.322 C 156.536 134.185,156.641 134.151,156.641 135.114 M219.994 183.311 C 219.271 184.182,219.777 185.950,221.174 187.432 C 221.918 188.221,223.192 189.702,224.006 190.723 C 225.953 193.166,227.734 192.860,227.734 190.084 C 227.734 187.789,221.098 181.982,219.994 183.311 M146.506 185.449 C 146.494 185.718,146.294 185.938,146.062 185.938 C 145.017 185.938,142.188 188.781,142.188 189.830 C 142.188 191.353,143.500 192.480,144.426 191.753 C 146.546 190.089,147.573 187.933,147.009 186.328 C 146.745 185.576,146.519 185.181,146.506 185.449 M226.367 228.746 C 223.789 230.102,219.834 231.951,217.578 232.855 C 211.583 235.257,212.000 234.941,212.850 236.434 C 215.621 241.304,219.562 247.228,220.045 247.251 C 220.221 247.259,221.979 246.068,223.952 244.605 C 225.925 243.142,229.385 240.687,231.641 239.150 C 233.896 237.614,236.154 236.001,236.658 235.566 L 237.574 234.776 234.900 230.489 C 231.770 225.470,232.366 225.592,226.367 228.746 M245.108 237.515 C 244.965 237.746,244.558 237.867,244.202 237.786 C 242.910 237.491,229.818 245.748,230.312 246.547 C 230.486 246.828,230.417 246.889,230.127 246.710 C 229.862 246.546,229.112 246.896,228.374 247.528 C 227.665 248.136,226.007 249.424,224.689 250.391 C 223.128 251.537,222.364 252.348,222.496 252.722 C 222.607 253.038,222.571 253.170,222.416 253.015 C 222.111 252.710,220.703 253.814,220.703 254.357 C 220.703 254.539,220.967 254.688,221.289 254.688 C 221.611 254.688,221.875 254.874,221.875 255.101 C 221.875 255.329,221.713 255.415,221.514 255.292 C 221.309 255.165,221.099 256.402,221.026 258.163 C 220.956 259.864,221.030 261.174,221.191 261.074 C 221.451 260.912,221.537 261.196,221.460 261.963 C 221.446 262.098,221.839 262.409,222.332 262.655 C 222.826 262.901,223.406 263.626,223.621 264.266 C 223.837 264.906,224.157 265.534,224.332 265.661 C 224.507 265.788,224.602 266.052,224.543 266.247 C 224.484 266.442,224.738 267.085,225.108 267.676 C 225.478 268.267,226.053 269.195,226.384 269.739 C 226.721 270.291,227.179 270.610,227.421 270.460 C 227.662 270.311,227.746 270.368,227.611 270.587 C 227.341 271.024,228.134 272.379,233.859 281.250 C 236.008 284.580,239.581 290.117,241.800 293.555 C 244.019 296.992,248.237 303.584,251.173 308.203 C 254.109 312.822,258.152 319.150,260.159 322.266 C 262.165 325.381,264.694 329.409,265.780 331.216 C 269.358 337.177,273.065 340.468,278.169 342.216 C 293.335 347.410,307.477 330.164,300.664 314.784 C 299.628 312.445,297.447 309.172,287.300 294.727 C 283.829 289.785,279.070 282.944,276.725 279.525 C 274.380 276.105,271.395 271.886,270.093 270.150 C 268.790 268.413,267.056 265.938,266.238 264.648 C 264.516 261.933,260.201 255.782,257.062 251.567 C 255.863 249.959,254.234 247.603,253.442 246.332 C 252.649 245.061,251.849 243.916,251.663 243.788 C 251.477 243.660,250.307 242.268,249.062 240.696 C 247.568 238.808,246.605 237.910,246.231 238.054 C 245.918 238.174,245.762 238.111,245.885 237.913 C 246.007 237.716,245.940 237.451,245.736 237.325 C 245.533 237.200,245.250 237.285,245.108 237.515 M225.000 251.307 C 225.000 251.800,223.477 252.724,223.256 252.366 C 223.113 252.135,223.403 251.783,223.901 251.584 C 225.011 251.139,225.000 251.141,225.000 251.307 M284.700 319.824 C 285.997 320.929,285.980 323.149,284.668 323.968 C 282.905 325.068,281.698 325.093,280.656 324.051 C 278.003 321.398,281.840 317.388,284.700 319.824 " stroke="none" fill="#182c38" fill-rule="evenodd"></path><path id="path2" d="M184.082 78.800 C 184.888 78.884,186.206 78.884,187.012 78.800 C 187.817 78.716,187.158 78.647,185.547 78.647 C 183.936 78.647,183.276 78.716,184.082 78.800 M184.375 84.276 C 184.375 84.344,184.771 84.559,185.254 84.753 L 186.133 85.107 185.189 85.131 C 184.670 85.145,184.349 85.261,184.477 85.389 C 184.848 85.760,187.140 85.131,186.890 84.727 C 186.766 84.527,186.501 84.463,186.301 84.587 C 186.101 84.711,185.938 84.663,185.938 84.482 C 185.938 84.300,185.586 84.152,185.156 84.152 C 184.727 84.152,184.375 84.208,184.375 84.276 M237.109 95.044 C 237.109 95.111,237.681 95.683,238.379 96.314 L 239.648 97.461 238.501 96.191 C 237.432 95.008,237.109 94.742,237.109 95.044 M224.989 111.230 L 222.461 113.867 225.098 111.339 C 226.548 109.949,227.734 108.763,227.734 108.703 C 227.734 108.415,227.337 108.781,224.989 111.230 M175.000 109.606 C 170.121 110.637,161.763 114.359,162.317 115.254 C 162.440 115.453,162.311 115.528,162.030 115.420 C 161.394 115.176,158.502 117.505,158.814 118.010 C 158.940 118.213,158.866 118.330,158.650 118.271 C 157.677 118.006,150.845 126.226,149.057 129.813 C 145.981 135.984,144.074 144.736,145.703 145.204 C 146.224 145.353,146.224 145.325,145.703 144.952 C 145.258 144.633,145.422 144.591,146.387 144.776 C 147.449 144.980,147.661 144.900,147.684 144.287 C 147.709 143.603,147.734 143.607,148.058 144.336 C 148.331 144.951,148.402 144.785,148.391 143.555 C 148.304 134.035,157.382 120.855,167.578 115.699 C 171.735 113.597,180.228 111.360,182.147 111.862 C 182.752 112.020,182.847 111.899,182.661 111.204 C 182.535 110.735,182.430 110.022,182.427 109.620 C 182.423 109.053,182.304 108.986,181.898 109.324 C 181.609 109.563,181.288 109.673,181.183 109.569 C 180.712 109.097,177.311 109.118,175.000 109.606 M188.188 111.995 C 188.674 112.088,189.377 112.085,189.751 111.987 C 190.124 111.889,189.727 111.813,188.867 111.817 C 188.008 111.822,187.702 111.902,188.188 111.995 M184.082 115.894 C 184.458 115.993,185.073 115.993,185.449 115.894 C 185.825 115.796,185.518 115.716,184.766 115.716 C 184.014 115.716,183.706 115.796,184.082 115.894 M209.766 121.607 C 209.766 121.674,210.337 122.245,211.035 122.876 L 212.305 124.023 211.157 122.754 C 210.088 121.571,209.766 121.305,209.766 121.607 M160.327 127.441 L 159.180 128.711 160.449 127.564 C 161.633 126.494,161.898 126.172,161.597 126.172 C 161.529 126.172,160.958 126.743,160.327 127.441 M185.547 139.185 C 185.547 139.252,186.118 139.823,186.816 140.454 L 188.086 141.602 186.939 140.332 C 185.869 139.149,185.547 138.883,185.547 139.185 M144.252 147.852 C 144.255 148.926,144.331 149.319,144.421 148.725 C 144.511 148.131,144.508 147.252,144.416 146.772 C 144.323 146.292,144.249 146.777,144.252 147.852 M217.286 148.242 C 217.290 149.102,217.370 149.407,217.464 148.921 C 217.557 148.435,217.554 147.732,217.456 147.359 C 217.358 146.985,217.282 147.383,217.286 148.242 M109.897 150.391 C 109.897 152.002,109.966 152.661,110.050 151.855 C 110.134 151.050,110.134 149.731,110.050 148.926 C 109.966 148.120,109.897 148.779,109.897 150.391 M130.772 150.677 C 131.691 150.760,133.097 150.759,133.897 150.675 C 134.697 150.591,133.945 150.523,132.227 150.525 C 130.508 150.526,129.853 150.595,130.772 150.677 M231.386 150.964 C 231.507 151.279,231.462 151.627,231.284 151.737 C 231.107 151.846,230.846 152.967,230.703 154.227 C 230.560 155.487,230.032 158.061,229.528 159.946 C 229.025 161.831,228.694 163.749,228.794 164.207 C 228.944 164.902,228.899 164.943,228.520 164.453 C 228.116 163.932,228.083 163.932,228.225 164.453 C 228.313 164.775,228.664 165.093,229.006 165.159 C 229.460 165.248,229.570 165.064,229.416 164.476 C 229.296 164.019,229.394 163.672,229.642 163.672 C 229.882 163.672,230.081 163.188,230.084 162.598 C 230.089 161.783,230.178 161.662,230.453 162.098 C 230.653 162.414,230.939 162.550,231.089 162.400 C 231.239 162.251,231.168 161.895,230.931 161.610 C 230.423 160.997,230.774 159.276,231.336 159.624 C 231.572 159.770,231.625 159.551,231.471 159.066 C 231.266 158.420,231.359 158.305,231.961 158.462 C 232.561 158.619,232.704 158.444,232.706 157.551 C 232.708 156.943,232.836 156.006,232.990 155.469 C 233.197 154.750,233.166 154.642,232.873 155.059 C 232.413 155.713,232.521 153.420,233.005 152.246 C 233.301 151.527,233.984 151.304,233.984 151.927 C 233.984 152.127,234.345 152.406,234.786 152.546 C 235.466 152.761,235.510 152.894,235.079 153.416 C 234.623 153.967,234.659 153.976,235.424 153.500 L 236.278 152.968 235.455 152.392 C 234.657 151.833,234.655 151.806,235.382 151.521 C 235.870 151.330,235.380 151.215,233.984 151.193 C 232.446 151.169,232.002 151.052,232.422 150.781 C 232.891 150.478,232.825 150.401,232.087 150.397 C 231.437 150.392,231.231 150.559,231.386 150.964 M238.175 150.673 C 238.868 150.759,240.099 150.760,240.909 150.676 C 241.720 150.591,241.152 150.521,239.648 150.519 C 238.145 150.517,237.481 150.586,238.175 150.673 M254.388 151.953 C 254.388 152.705,254.468 153.013,254.566 152.637 C 254.664 152.261,254.664 151.646,254.566 151.270 C 254.468 150.894,254.388 151.201,254.388 151.953 M233.209 153.027 C 233.212 153.403,233.359 153.938,233.535 154.215 C 233.741 154.539,233.854 154.296,233.854 153.531 C 233.854 152.878,233.708 152.344,233.529 152.344 C 233.350 152.344,233.206 152.651,233.209 153.027 M146.713 153.418 C 145.238 158.127,149.929 171.723,152.234 169.418 C 152.916 168.736,153.198 166.016,152.586 166.016 C 152.381 166.016,152.316 165.913,152.441 165.788 C 152.567 165.662,152.319 165.209,151.890 164.781 C 151.462 164.353,151.207 163.752,151.325 163.446 C 151.442 163.141,151.373 162.891,151.172 162.891 C 150.971 162.891,150.907 162.627,151.031 162.305 C 151.158 161.973,151.040 161.719,150.758 161.719 C 150.484 161.719,150.357 161.622,150.476 161.503 C 150.595 161.385,150.276 160.110,149.768 158.671 C 149.260 157.232,148.841 155.741,148.836 155.357 C 148.817 153.690,147.115 152.136,146.713 153.418 M175.781 161.060 C 175.781 161.127,176.353 161.698,177.051 162.329 L 178.320 163.477 177.173 162.207 C 176.104 161.024,175.781 160.758,175.781 161.060 M225.617 170.739 C 224.799 172.446,223.254 175.026,222.184 176.472 C 218.908 180.901,218.901 180.931,220.822 182.283 L 222.461 183.436 222.537 182.061 C 222.579 181.304,222.842 180.505,223.123 180.284 C 223.403 180.063,223.964 179.232,224.368 178.436 C 224.773 177.640,225.388 176.674,225.735 176.288 C 226.435 175.510,226.653 174.633,226.603 172.799 C 226.585 172.125,226.822 171.364,227.131 171.108 C 227.547 170.763,227.597 170.392,227.323 169.671 C 226.854 168.439,226.857 167.994,227.328 168.739 C 227.528 169.055,227.775 169.230,227.877 169.129 C 227.978 169.027,227.846 168.650,227.583 168.290 C 227.169 167.724,226.904 168.053,225.617 170.739 M226.953 174.632 C 226.953 175.075,227.129 175.328,227.344 175.195 C 227.559 175.063,227.734 174.701,227.734 174.391 C 227.734 174.081,227.559 173.828,227.344 173.828 C 227.129 173.828,226.953 174.190,226.953 174.632 M164.433 179.077 C 164.707 179.408,165.545 180.057,166.296 180.521 L 167.660 181.364 166.494 181.855 C 164.583 182.658,164.719 183.071,167.285 184.272 C 169.742 185.421,172.314 186.246,171.783 185.715 C 171.625 185.558,171.801 185.181,172.174 184.877 C 172.671 184.473,172.721 184.271,172.361 184.122 C 172.091 184.010,171.972 183.753,172.097 183.551 C 172.222 183.349,172.179 183.223,172.002 183.271 C 171.270 183.469,169.973 182.743,170.165 182.244 C 170.296 181.900,169.969 181.627,169.231 181.465 C 168.605 181.328,167.158 180.599,166.014 179.846 C 164.870 179.092,164.158 178.746,164.433 179.077 M150.391 180.591 C 150.391 180.658,150.962 181.229,151.660 181.861 L 152.930 183.008 151.782 181.738 C 150.713 180.555,150.391 180.289,150.391 180.591 M222.029 181.356 C 222.182 181.203,222.177 181.416,222.019 181.828 C 221.850 182.270,221.667 182.384,221.575 182.107 C 221.488 181.848,221.286 181.717,221.125 181.816 C 220.965 181.916,220.833 181.744,220.833 181.434 C 220.833 181.048,220.977 180.991,221.292 181.253 C 221.545 181.462,221.877 181.509,222.029 181.356 M148.862 182.783 C 148.439 183.051,148.529 183.163,149.253 183.265 C 150.004 183.371,150.192 183.625,150.177 184.515 L 150.158 185.632 150.860 184.765 C 152.237 183.065,150.749 181.589,148.862 182.783 M216.399 183.064 C 215.866 183.420,214.902 184.197,214.258 184.790 C 212.828 186.106,205.610 190.625,204.937 190.625 C 204.671 190.625,204.286 190.775,204.082 190.957 C 203.446 191.527,195.074 193.795,191.096 194.474 L 187.305 195.122 187.290 201.663 L 187.275 208.204 187.397 201.758 C 187.475 197.621,187.665 195.313,187.926 195.313 C 188.155 195.313,188.226 195.653,188.088 196.088 C 187.864 196.792,188.003 196.854,189.593 196.761 C 190.622 196.700,191.251 196.811,191.116 197.028 C 190.984 197.242,191.181 197.286,191.581 197.132 C 192.089 196.937,192.216 197.019,192.056 197.437 C 191.909 197.819,192.023 197.936,192.403 197.790 C 192.714 197.670,192.969 197.416,192.969 197.224 C 192.969 196.571,195.262 196.855,195.672 197.559 C 196.039 198.188,196.073 198.181,196.113 197.461 C 196.136 197.031,196.244 196.899,196.352 197.168 C 196.677 197.973,197.373 197.718,197.152 196.875 C 196.873 195.808,197.589 195.884,198.068 196.973 C 198.430 197.796,198.445 197.783,198.305 196.777 C 198.139 195.588,200.459 195.147,201.484 196.172 C 201.849 196.536,201.953 196.493,201.953 195.977 C 201.953 195.611,202.129 195.313,202.344 195.313 C 202.559 195.313,202.734 195.488,202.734 195.703 C 202.734 195.918,202.910 196.094,203.125 196.094 C 203.340 196.094,203.518 195.786,203.522 195.410 C 203.525 195.024,203.653 194.897,203.815 195.117 C 204.413 195.932,206.745 195.754,206.525 194.911 C 206.356 194.265,206.472 194.182,207.264 194.380 C 208.027 194.572,208.203 194.466,208.203 193.815 C 208.203 193.375,208.386 192.902,208.609 192.764 C 208.875 192.599,208.923 192.881,208.748 193.580 C 208.568 194.296,208.618 194.563,208.897 194.390 C 209.127 194.248,209.430 193.606,209.571 192.964 C 209.838 191.749,210.547 191.344,210.547 192.406 C 210.547 192.741,210.715 192.911,210.920 192.784 C 211.126 192.657,211.203 192.317,211.092 192.028 C 210.966 191.699,211.279 191.405,211.932 191.241 C 212.723 191.043,212.924 190.797,212.773 190.216 C 212.663 189.796,212.717 189.541,212.894 189.650 C 213.070 189.759,213.289 189.716,213.379 189.553 C 213.470 189.391,213.481 189.502,213.404 189.801 C 213.288 190.250,213.370 190.257,213.871 189.840 C 214.206 189.563,214.418 189.154,214.344 188.931 C 214.170 188.408,215.320 187.259,216.343 186.934 C 216.780 186.795,217.193 186.308,217.260 185.852 C 217.328 185.396,217.627 184.942,217.925 184.843 C 218.224 184.745,218.390 184.819,218.295 185.008 C 218.200 185.197,219.181 186.318,220.475 187.500 L 222.828 189.648 220.793 187.375 C 219.674 186.125,218.617 184.555,218.443 183.886 C 218.056 182.394,217.649 182.230,216.399 183.064 M146.655 184.473 L 145.508 185.742 146.777 184.595 C 147.476 183.964,148.047 183.393,148.047 183.325 C 148.047 183.024,147.725 183.289,146.655 184.473 M148.224 187.598 L 146.680 189.258 148.340 187.714 C 149.253 186.864,150.000 186.117,150.000 186.054 C 150.000 185.758,149.660 186.054,148.224 187.598 M164.267 190.641 C 164.395 190.847,164.747 191.016,165.050 191.016 C 165.407 191.016,165.514 191.255,165.355 191.699 C 165.204 192.121,165.246 192.235,165.465 191.997 C 165.660 191.784,165.969 191.500,166.151 191.364 C 166.333 191.229,165.931 190.926,165.259 190.692 C 164.551 190.445,164.133 190.424,164.267 190.641 M169.373 192.730 C 169.518 193.106,169.414 193.359,169.117 193.359 C 168.844 193.359,168.713 193.452,168.826 193.566 C 168.939 193.679,169.508 193.591,170.089 193.370 C 171.072 192.996,171.129 193.030,170.899 193.847 C 170.698 194.564,170.734 194.618,171.098 194.141 C 171.418 193.720,171.598 193.686,171.735 194.021 C 171.840 194.278,172.148 194.402,172.419 194.298 C 172.691 194.194,173.107 194.511,173.344 195.003 C 173.744 195.834,173.779 195.842,173.829 195.117 L 173.883 194.336 174.219 195.117 C 174.403 195.547,174.567 195.679,174.582 195.410 C 174.597 195.142,174.883 194.922,175.218 194.922 C 175.553 194.922,175.741 195.062,175.635 195.233 C 175.529 195.404,176.618 195.363,178.054 195.142 L 180.664 194.739 178.125 194.470 C 176.020 194.247,172.138 193.254,169.676 192.309 C 169.301 192.166,169.207 192.296,169.373 192.730 M182.534 196.680 C 182.537 197.754,182.612 198.147,182.702 197.553 C 182.792 196.959,182.790 196.081,182.697 195.600 C 182.604 195.120,182.531 195.605,182.534 196.680 " stroke="none" fill="#82a1a9" fill-rule="evenodd"></path><path id="path3" d="M187.221 96.680 C 187.224 97.754,187.300 98.147,187.390 97.553 C 187.479 96.959,187.477 96.081,187.384 95.600 C 187.292 95.120,187.218 95.605,187.221 96.680 M177.760 108.647 C 174.882 109.124,174.811 109.367,177.587 109.232 C 178.850 109.171,180.261 109.255,180.723 109.419 C 181.327 109.633,181.756 109.504,182.249 108.960 C 183.051 108.074,181.758 107.983,177.760 108.647 M188.345 109.710 C 187.181 110.720,187.245 111.719,188.472 111.719 C 190.958 111.719,198.605 114.228,202.171 116.214 L 204.537 117.532 204.632 115.923 C 204.685 115.038,204.833 114.142,204.963 113.933 C 205.093 113.723,205.014 113.665,204.789 113.805 C 204.563 113.944,204.274 113.785,204.146 113.451 C 203.233 111.071,190.305 108.010,188.345 109.710 M151.458 114.811 C 151.341 115.259,151.394 115.625,151.576 115.625 C 152.108 115.625,152.318 115.043,151.982 114.499 C 151.755 114.133,151.613 114.217,151.458 114.811 M154.284 122.168 L 152.148 124.414 154.395 122.279 C 156.481 120.295,156.820 119.922,156.530 119.922 C 156.469 119.922,155.458 120.933,154.284 122.168 M216.276 129.274 C 215.912 129.725,215.931 129.771,216.375 129.503 C 216.794 129.250,216.867 129.332,216.672 129.839 C 216.511 130.260,216.568 130.415,216.827 130.255 C 217.054 130.114,217.193 130.237,217.137 130.527 C 217.080 130.817,217.583 132.123,218.255 133.430 C 219.523 135.897,220.679 139.730,220.736 141.658 C 220.761 142.488,220.921 142.224,221.363 140.625 C 223.052 134.514,219.125 125.753,216.276 129.274 M147.656 144.385 C 147.656 144.890,147.402 144.969,146.415 144.771 C 144.883 144.465,145.157 144.820,146.822 145.297 C 147.955 145.622,148.047 145.577,148.047 144.699 C 148.047 144.177,147.959 143.750,147.852 143.750 C 147.744 143.750,147.656 144.036,147.656 144.385 M259.900 149.023 C 259.901 150.742,259.970 151.397,260.052 150.478 C 260.135 149.559,260.134 148.153,260.050 147.353 C 259.966 146.553,259.898 147.305,259.900 149.023 M152.044 148.047 C 152.044 148.799,152.124 149.106,152.222 148.730 C 152.321 148.354,152.321 147.739,152.222 147.363 C 152.124 146.987,152.044 147.295,152.044 148.047 M127.251 150.667 C 127.737 150.760,128.440 150.757,128.813 150.659 C 129.187 150.561,128.789 150.485,127.930 150.489 C 127.070 150.493,126.765 150.573,127.251 150.667 M145.182 150.651 C 144.800 151.033,144.864 152.923,145.353 155.730 C 145.777 158.165,146.313 159.043,146.327 157.324 C 146.360 153.352,146.878 152.036,147.905 153.320 C 148.505 154.070,148.518 154.054,148.234 152.930 C 148.071 152.285,147.952 151.450,147.968 151.074 C 147.999 150.382,145.787 150.046,145.182 150.651 M233.894 150.674 C 234.596 150.761,235.650 150.759,236.237 150.670 C 236.824 150.581,236.250 150.509,234.961 150.512 C 233.672 150.514,233.192 150.587,233.894 150.674 M152.872 167.245 C 153.231 168.742,151.935 170.326,150.992 169.544 C 149.864 168.608,151.942 171.830,153.569 173.541 C 156.513 176.635,157.277 173.658,154.656 169.310 C 152.711 166.084,152.549 165.897,152.872 167.245 M160.670 176.435 C 161.112 176.954,161.228 177.359,160.978 177.514 C 160.716 177.676,160.704 178.096,160.943 178.725 C 161.243 179.516,161.189 179.690,160.635 179.704 C 159.492 179.731,163.103 182.672,165.904 183.995 C 167.304 184.656,168.522 185.124,168.611 185.035 C 168.701 184.945,167.884 184.489,166.796 184.021 C 164.687 183.114,164.609 182.647,166.441 181.877 L 167.554 181.409 165.143 179.669 C 163.816 178.712,162.108 177.407,161.346 176.767 C 160.584 176.128,160.280 175.978,160.670 176.435 M218.445 181.422 C 217.906 181.990,217.713 182.459,217.957 182.610 C 218.178 182.747,218.359 183.210,218.359 183.640 C 218.359 184.070,218.538 184.311,218.756 184.176 C 218.975 184.041,219.051 183.765,218.927 183.564 C 218.601 183.036,219.824 181.935,220.407 182.231 C 220.677 182.368,220.547 182.191,220.117 181.837 C 219.688 181.484,219.380 181.031,219.434 180.832 C 219.578 180.295,219.429 180.384,218.445 181.422 M170.181 182.319 C 170.065 182.507,170.574 182.986,171.313 183.384 C 172.733 184.148,172.995 184.660,172.135 184.990 C 170.188 185.737,172.911 186.956,178.741 187.947 C 182.299 188.552,182.813 188.349,182.813 186.340 C 182.813 184.784,182.795 184.765,181.348 184.747 C 179.996 184.730,172.518 182.931,171.036 182.267 C 170.681 182.108,170.297 182.132,170.181 182.319 M147.642 183.867 C 147.186 184.468,147.188 184.499,147.656 184.082 C 148.506 183.324,149.597 183.505,150.009 184.473 C 150.377 185.339,150.381 185.337,150.289 184.375 C 150.170 183.135,148.448 182.804,147.642 183.867 M205.859 189.844 C 205.107 190.255,204.756 190.596,205.078 190.600 C 205.400 190.604,206.104 190.264,206.641 189.844 C 207.868 188.883,207.614 188.883,205.859 189.844 M182.528 200.000 C 182.528 200.967,182.604 201.362,182.698 200.879 C 182.791 200.396,182.791 199.604,182.698 199.121 C 182.604 198.638,182.528 199.033,182.528 200.000 M237.677 200.488 L 236.133 202.148 237.793 200.604 C 239.337 199.168,239.633 198.828,239.337 198.828 C 239.273 198.828,238.526 199.575,237.677 200.488 " stroke="none" fill="#657e87" fill-rule="evenodd"></path><path id="path4" d="M180.176 73.331 C 180.981 73.416,182.300 73.416,183.105 73.331 C 183.911 73.247,183.252 73.178,181.641 73.178 C 180.029 73.178,179.370 73.247,180.176 73.331 M186.816 73.327 C 187.407 73.416,188.374 73.416,188.965 73.327 C 189.556 73.237,189.072 73.164,187.891 73.164 C 186.709 73.164,186.226 73.237,186.816 73.327 M137.165 76.520 C 136.246 77.102,137.268 77.301,138.286 76.737 C 139.146 76.261,139.168 76.199,138.477 76.192 C 138.047 76.187,137.457 76.335,137.165 76.520 M129.282 83.026 C 129.007 83.358,128.575 83.550,128.323 83.453 C 128.071 83.357,127.865 83.508,127.865 83.789 C 127.865 84.084,128.113 84.205,128.453 84.075 C 129.201 83.788,130.583 82.422,130.126 82.422 C 129.937 82.422,129.558 82.694,129.282 83.026 M182.577 93.750 C 182.577 96.865,182.638 98.140,182.712 96.582 C 182.786 95.024,182.786 92.476,182.712 90.918 C 182.638 89.360,182.577 90.635,182.577 93.750 M187.248 91.602 C 187.247 93.535,187.313 94.375,187.395 93.469 C 187.477 92.562,187.478 90.980,187.397 89.953 C 187.316 88.926,187.249 89.668,187.248 91.602 M232.813 90.747 C 232.813 90.814,233.384 91.386,234.082 92.017 L 235.352 93.164 234.204 91.895 C 233.135 90.711,232.813 90.445,232.813 90.747 M131.641 95.117 C 130.692 96.084,130.003 96.875,130.111 96.875 C 130.218 96.875,131.082 96.084,132.031 95.117 C 132.980 94.150,133.669 93.359,133.561 93.359 C 133.454 93.359,132.589 94.150,131.641 95.117 M116.688 96.098 C 115.943 96.969,115.805 97.442,116.404 97.072 C 116.787 96.835,117.721 95.313,117.483 95.313 C 117.416 95.313,117.058 95.666,116.688 96.098 M188.574 108.431 C 187.946 109.059,188.395 109.181,191.505 109.226 C 193.419 109.253,194.396 109.149,193.911 108.969 C 192.607 108.484,188.895 108.110,188.574 108.431 M187.506 109.277 C 187.503 109.761,187.676 110.156,187.891 110.156 C 188.380 110.156,188.380 109.742,187.891 108.984 C 187.584 108.511,187.511 108.567,187.506 109.277 M223.828 111.914 C 223.099 112.666,222.125 113.281,221.664 113.281 C 220.464 113.281,219.335 114.586,220.034 115.165 C 220.441 115.503,221.109 115.041,223.060 113.073 C 224.437 111.684,225.471 110.547,225.358 110.547 C 225.246 110.547,224.557 111.162,223.828 111.914 M202.461 112.146 C 203.278 112.577,204.043 113.183,204.162 113.494 C 204.281 113.804,204.507 113.979,204.664 113.882 C 204.821 113.785,204.831 114.486,204.686 115.440 L 204.423 117.174 207.124 119.183 C 210.082 121.382,214.303 126.065,216.018 129.049 C 216.899 130.581,217.099 130.759,217.051 129.965 C 217.019 129.424,216.816 129.080,216.602 129.202 C 216.387 129.323,216.342 129.277,216.503 129.100 C 218.725 126.649,223.562 135.584,221.775 138.838 C 221.530 139.284,221.320 140.902,221.308 142.435 L 221.287 145.221 222.460 145.073 C 224.516 144.813,224.609 144.794,224.609 144.639 C 224.609 139.298,220.624 129.304,216.543 124.407 C 215.286 122.900,213.599 120.849,212.794 119.851 C 210.473 116.972,202.749 111.263,201.285 111.345 C 201.115 111.355,201.645 111.715,202.461 112.146 M154.726 113.045 C 154.043 113.772,153.963 114.047,154.365 114.279 C 154.650 114.444,154.749 114.431,154.586 114.252 C 154.423 114.072,154.674 113.517,155.143 113.017 C 155.612 112.518,155.908 112.109,155.800 112.109 C 155.693 112.109,155.210 112.530,154.726 113.045 M218.586 113.536 C 218.460 113.865,218.456 114.293,218.576 114.488 C 218.697 114.684,218.610 114.844,218.382 114.844 C 218.155 114.844,217.969 114.570,217.969 114.235 C 217.969 113.900,217.780 113.743,217.549 113.885 C 217.025 114.209,218.639 116.016,219.452 116.016 C 219.899 116.016,219.920 115.898,219.552 115.455 C 219.217 115.051,219.201 114.679,219.497 114.127 C 219.809 113.544,219.776 113.309,219.361 113.150 C 219.061 113.034,218.712 113.208,218.586 113.536 M150.902 114.231 C 150.647 114.522,150.544 114.867,150.675 114.997 C 150.805 115.128,150.487 115.255,149.967 115.281 C 149.128 115.322,149.153 115.360,150.195 115.625 C 152.162 116.125,152.734 116.059,152.740 115.332 C 152.745 114.759,152.805 114.741,153.110 115.223 C 153.595 115.990,154.076 115.468,153.625 114.663 C 153.310 114.100,153.196 114.117,152.552 114.829 C 151.591 115.891,151.241 115.833,151.467 114.648 C 151.677 113.548,151.571 113.469,150.902 114.231 M156.036 120.020 L 154.492 121.680 156.152 120.136 C 157.696 118.700,157.992 118.359,157.696 118.359 C 157.633 118.359,156.886 119.106,156.036 120.020 M171.293 119.537 C 171.527 119.916,171.433 119.986,170.942 119.797 C 170.491 119.624,170.363 119.688,170.552 119.993 C 170.738 120.295,170.615 120.362,170.181 120.196 C 169.824 120.059,169.531 120.117,169.531 120.325 C 169.531 120.902,170.938 120.775,171.456 120.152 C 171.806 119.730,171.803 119.533,171.443 119.310 C 171.124 119.113,171.075 119.186,171.293 119.537 M166.309 122.102 C 166.177 122.234,166.161 122.582,166.274 122.874 C 166.414 123.240,166.231 123.359,165.686 123.254 C 164.766 123.077,163.776 123.996,164.444 124.408 C 164.674 124.551,164.815 124.435,164.756 124.150 C 164.688 123.826,164.954 123.675,165.468 123.745 C 166.449 123.879,167.494 122.806,166.930 122.243 C 166.721 122.033,166.441 121.970,166.309 122.102 M156.208 133.887 C 156.186 134.048,156.142 134.531,156.111 134.961 C 156.080 135.391,155.822 135.694,155.537 135.635 C 155.253 135.576,155.127 135.700,155.257 135.911 C 155.736 136.686,156.647 135.856,156.560 134.723 C 156.479 133.660,156.301 133.235,156.208 133.887 M154.923 137.174 C 155.034 137.354,154.955 137.500,154.747 137.500 C 154.540 137.500,154.469 137.879,154.590 138.342 C 154.731 138.882,154.661 139.092,154.395 138.928 C 154.133 138.766,154.055 138.960,154.184 139.453 C 154.466 140.532,154.640 140.442,155.293 138.880 C 156.003 137.181,156.003 136.849,155.291 136.849 C 154.978 136.849,154.812 136.995,154.923 137.174 M259.872 144.531 C 259.872 145.498,259.948 145.894,260.041 145.410 C 260.134 144.927,260.134 144.136,260.041 143.652 C 259.948 143.169,259.872 143.564,259.872 144.531 M98.528 146.484 C 98.528 147.236,98.609 147.544,98.707 147.168 C 98.805 146.792,98.805 146.177,98.707 145.801 C 98.609 145.425,98.528 145.732,98.528 146.484 M137.500 145.703 L 136.523 146.016 137.598 146.055 C 138.188 146.076,138.672 145.918,138.672 145.703 C 138.672 145.488,138.628 145.330,138.574 145.351 C 138.521 145.373,138.037 145.531,137.500 145.703 M132.324 145.986 C 133.022 146.072,134.165 146.072,134.863 145.986 C 135.562 145.899,134.990 145.828,133.594 145.828 C 132.197 145.828,131.626 145.899,132.324 145.986 M231.938 145.979 C 232.424 146.073,233.127 146.069,233.501 145.972 C 233.874 145.874,233.477 145.797,232.617 145.802 C 231.758 145.806,231.452 145.886,231.938 145.979 M98.536 150.195 C 98.540 151.055,98.620 151.360,98.714 150.874 C 98.807 150.388,98.804 149.685,98.706 149.312 C 98.608 148.938,98.532 149.336,98.536 150.195 M144.792 150.260 C 144.648 150.404,144.552 151.063,144.577 151.725 L 144.624 152.930 144.873 151.758 C 145.078 150.796,145.367 150.543,146.487 150.344 L 147.852 150.103 146.452 150.051 C 145.682 150.023,144.935 150.117,144.792 150.260 M221.192 151.498 C 221.302 152.321,221.225 153.295,221.020 153.661 C 220.815 154.027,220.770 154.883,220.919 155.563 L 221.191 156.799 221.983 155.255 C 223.292 152.706,223.312 150.000,222.021 150.000 C 221.052 150.000,221.003 150.089,221.192 151.498 M259.864 153.320 C 259.868 154.180,259.948 154.485,260.042 153.999 C 260.135 153.513,260.132 152.810,260.034 152.437 C 259.936 152.063,259.860 152.461,259.864 153.320 M150.827 170.313 C 151.075 170.850,151.848 172.080,152.543 173.047 C 153.238 174.014,153.927 175.156,154.073 175.586 C 154.333 176.353,156.439 178.133,160.336 180.880 C 163.336 182.994,163.641 183.094,161.719 181.331 C 160.489 180.204,160.163 179.715,160.635 179.704 C 161.181 179.691,161.242 179.512,160.956 178.761 C 160.739 178.189,160.749 177.689,160.982 177.455 C 161.226 177.211,160.459 176.119,158.822 174.378 L 156.284 171.680 156.267 173.121 C 156.230 176.269,154.412 175.238,150.871 170.061 C 150.453 169.450,150.446 169.490,150.827 170.313 M150.781 180.591 C 150.781 180.658,151.353 181.229,152.051 181.861 L 153.320 183.008 152.173 181.738 C 151.104 180.555,150.781 180.289,150.781 180.591 M219.267 182.584 C 218.744 183.181,218.845 185.017,219.433 185.605 C 219.697 185.869,219.781 185.609,219.688 184.812 C 219.589 183.959,219.772 183.469,220.340 183.072 C 221.033 182.586,221.052 182.489,220.493 182.275 C 219.720 181.978,219.822 181.953,219.267 182.584 M195.132 183.228 C 195.390 183.644,193.097 184.110,192.527 183.758 C 192.219 183.567,192.171 183.642,192.384 183.986 C 192.619 184.367,192.485 184.442,191.858 184.278 C 191.395 184.157,191.016 184.236,191.016 184.453 C 191.016 184.671,190.752 184.748,190.430 184.624 C 190.107 184.501,189.844 184.570,189.844 184.778 C 189.844 184.986,189.492 185.156,189.063 185.156 C 187.855 185.156,187.951 187.293,189.160 187.336 C 189.644 187.352,190.215 187.417,190.430 187.479 C 191.642 187.830,193.431 187.468,193.218 186.914 C 193.058 186.496,193.255 186.328,193.905 186.328 C 196.111 186.328,197.882 183.487,195.910 183.110 C 195.380 183.008,195.030 183.061,195.132 183.228 M146.875 184.736 C 146.123 185.379,145.728 185.913,145.996 185.922 C 146.265 185.930,146.494 185.718,146.506 185.449 C 146.519 185.181,146.750 185.576,147.020 186.328 C 147.334 187.202,147.381 187.907,147.150 188.281 C 146.952 188.604,147.515 188.076,148.403 187.109 C 151.021 184.257,149.747 182.279,146.875 184.736 M187.612 186.914 C 187.615 187.988,187.691 188.381,187.780 187.788 C 187.870 187.194,187.868 186.315,187.775 185.834 C 187.682 185.354,187.609 185.840,187.612 186.914 M220.313 186.841 C 220.313 186.908,220.884 187.479,221.582 188.111 L 222.852 189.258 221.704 187.988 C 220.635 186.805,220.313 186.539,220.313 186.841 M181.250 188.281 L 179.883 188.569 181.348 188.620 C 182.153 188.649,182.813 188.496,182.813 188.281 C 182.813 188.066,182.769 187.914,182.715 187.942 C 182.661 187.970,182.002 188.123,181.250 188.281 M205.078 189.844 C 204.326 190.255,203.887 190.592,204.102 190.592 C 204.316 190.592,205.107 190.255,205.859 189.844 C 206.611 189.432,207.051 189.095,206.836 189.095 C 206.621 189.095,205.830 189.432,205.078 189.844 M182.520 202.930 C 182.525 203.789,182.605 204.095,182.698 203.609 C 182.792 203.123,182.788 202.420,182.690 202.046 C 182.592 201.673,182.516 202.070,182.520 202.930 M123.633 208.594 C 124.472 209.453,125.246 210.156,125.354 210.156 C 125.461 210.156,124.863 209.453,124.023 208.594 C 123.184 207.734,122.410 207.031,122.302 207.031 C 122.195 207.031,122.794 207.734,123.633 208.594 M243.945 237.500 C 243.813 237.715,243.968 237.891,244.290 237.891 C 244.612 237.891,244.984 237.715,245.117 237.500 C 245.250 237.285,245.095 237.109,244.773 237.109 C 244.450 237.109,244.078 237.285,243.945 237.500 M223.901 251.584 C 223.403 251.783,223.113 252.135,223.256 252.366 C 223.477 252.724,225.000 251.800,225.000 251.307 C 225.000 251.141,225.011 251.139,223.901 251.584 M220.102 255.127 C 219.755 256.219,219.991 259.090,220.479 259.728 C 220.710 260.030,220.870 260.333,220.835 260.403 C 220.663 260.744,221.230 262.109,221.544 262.109 C 221.746 262.109,221.726 261.780,221.498 261.354 C 220.968 260.364,220.956 254.947,221.484 255.273 C 221.699 255.406,221.875 255.349,221.875 255.147 C 221.875 254.378,220.345 254.362,220.102 255.127 M221.875 263.086 C 222.142 263.408,222.625 263.672,222.947 263.672 C 223.424 263.672,223.442 263.562,223.047 263.086 C 222.779 262.764,222.297 262.500,221.975 262.500 C 221.498 262.500,221.480 262.609,221.875 263.086 M223.326 264.340 C 223.158 264.599,223.244 265.171,223.518 265.609 C 224.047 266.456,224.609 266.665,224.609 266.016 C 224.609 265.801,224.446 265.625,224.246 265.625 C 224.046 265.625,223.826 265.229,223.757 264.746 C 223.673 264.159,223.530 264.024,223.326 264.340 " stroke="none" fill="#3a525c" fill-rule="evenodd"></path></g></svg>